<svg xmlns="http://www.w3.org/2000/svg" version="1.1" xmlns:xlink="http://www.w3.org/1999/xlink" xmlns:svgjs="http://svgjs.dev/svgjs" viewBox="0 0 1920 1080" style="overflow: hidden; height: 85vh;" class="overflow-hidden rounded-md drop-shadow-lg transition duration-300"><rect width="1920" height="1080" fill="#182330"/><g clip-path="url(&quot;#SvgjsClipPath2886&quot;)"><g transform="matrix(-0.4493407977626649,-1.0585805814703062,1.0585805814703062,-0.4493407977626649,784.6988191992875,1773.2923808245596)"><path d="M0,-1080C0.5296219095345217,-1014.3674582139708,-2.6557759681835806,-816.3306009471943,3.1777314572071305,-686.2047492838248C9.01123888259784,-556.0788976204552,35.48839135933475,-438.6501902362927,35.00104455234427,-299.24489001978293C34.51369774535379,-159.83958980327313,14.000966828672427,19.35648000206956,0.253650615264263,150.2270520152341C-13.4936655981439,281.0976240283986,-42.8343602642406,348.50398397903837,-47.48285272810472,485.9785420592044C-52.13134519196883,623.4531001393705,-36.92244745534696,826.9903557104153,-27.637304167920416,975.0744004962302C-18.35216088049387,1123.158445282045,-4.373682605754196,1241.2658735709556,8.22800699645456,1374.4828107740937C20.82969659866332,1507.6997479772317,49.34416794474121,1643.456492177407,47.972833445332114,1774.376023715058C46.60149894592302,1905.295555252709,7.995472240888685,2095.729337285843,0,2160L 1920 2160 L 1920 -1080 Z" fill="url(&quot;#SvgjsLinearGradient2880&quot;)"/><path d="M320,-1080C317.7220700720763,-997.5370106468789,303.42957983278575,-748.4028667661195,306.33242043245764,-585.2220638812734C309.23526103212953,-422.04126099642724,343.6510660262277,-246.73232303882742,337.41704359803146,-100.91518269092313C331.18302116983523,44.90195765698115,265.9445542311333,147.58298347955244,268.9282858632804,289.68077820615235C271.9120174954275,431.77857293275224,337.7830852067659,593.6039348840482,355.319433390914,751.6715856686765C372.8557815750621,909.7392364533048,375.69865246450047,1074.3649297818033,374.14637496816897,1238.0866829139222C372.5940974718375,1401.8084360460412,355.0301642409533,1580.3498849470436,346.00576841292514,1734.00210446139C336.981372584897,1887.6543239757364,324.3342947354875,2089.000350743565,320,2160L 1920 2160 L 1920 -1080 Z" fill="url(&quot;#SvgjsLinearGradient2881&quot;)"/><path d="M640,-1080C644.5828782635933,-1001.7895448508345,671.9488619782776,-766.4594392203128,667.4972695815597,-610.7372691050072C663.0456771848419,-455.0150989897015,619.8661891583312,-305.6261573897176,613.2904456196933,-145.66697930816608C606.7147020810554,14.29219877338545,628.3603399803687,192.40198637870662,628.0428083497326,349.01779938430207C627.7252767190964,505.6336123898975,606.6695760681207,654.7763275018519,611.3852558358761,794.0278987254065C616.1009356036316,933.2794699489612,645.1796615613134,1033.4108008298006,656.3368869562648,1184.5272267256296C667.4941123512162,1335.6436526214586,681.051422698295,1538.1476585546518,678.3286082055843,1700.7264541003801C675.6057937128735,1863.3052496461085,646.3881013675974,2083.45440901673,640,2160L 1920 2160 L 1920 -1080 Z" fill="url(&quot;#SvgjsLinearGradient2882&quot;)"/><path d="M960,-1080C951.6149462738045,-994.3557165336094,913.9288646985126,-727.3153524860109,909.6896776428271,-566.134299201657C905.4504905871415,-404.9532459173031,933.402413544844,-258.55244764519745,934.564877665887,-112.91368029387662C935.7273417869301,32.725087057444185,916.5782455459525,166.84204760768083,916.6644623690855,307.6983049062679C916.7506791922185,448.55456220485496,935.3895135136775,585.1173589825348,935.082178604685,732.2238634976457C934.7748436956927,879.3303680127565,914.7172590219778,1020.5110411809882,914.8204529151315,1190.337331996933C914.9236468082851,1360.1636228128777,928.171417449462,1589.5711637261365,935.7013419636068,1751.1816083933145C943.2312664777515,1912.7920530604924,955.9502236606011,2091.8636013988857,960,2160L 1920 2160 L 1920 -1080 Z" fill="url(&quot;#SvgjsLinearGradient2883&quot;)"/><path d="M1280,-1080C1282.7952949548844,-977.5786407969052,1303.8219629058633,-678.5820352056978,1296.7717697293065,-465.4718447814315C1289.7215765527496,-252.36165435716524,1236.3301134270678,-23.02334530855913,1237.6988409406595,198.66114254559767C1239.0675684542512,420.34563039975444,1300.4171602674664,644.223143161721,1304.9841348108566,864.6350823435093C1309.5511093542468,1085.0470215252976,1269.264710669476,1305.2386246935787,1265.100688201,1521.132777636327C1260.9366657325238,1737.0269305790755,1277.5167813668334,2053.5221296060545,1280,2160L 1920 2160 L 1920 -1080 Z" fill="url(&quot;#SvgjsLinearGradient2884&quot;)"/><path d="M1600,-1080C1598.8720188281275,-982.9619023654063,1596.5536353601,-681.9224200243224,1593.2321129687646,-497.771414192438C1589.910590577429,-313.6204083605536,1586.7920050285857,-139.29024866801888,1580.0708656519864,24.906034991306612C1573.3497262753872,189.10231865063207,1555.9897535562445,313.6175432900333,1552.905276709169,487.40628776351497C1549.8207998620933,661.1950322369967,1561.853893444591,883.8910129450686,1561.564004569533,1067.6385018321964C1561.2741156944749,1251.3859907193241,1544.7599442204098,1407.8309713916476,1551.165943458821,1589.8912210862816C1557.571942697232,1771.9514707809155,1591.8609905764702,2064.981870181047,1600,2160L 1920 2160 L 1920 -1080 Z" fill="url(&quot;#SvgjsLinearGradient2885&quot;)"/></g></g><defs><linearGradient x1="0.1" y1="0" x2="0" y2="1" id="SvgjsLinearGradient2880"><stop stop-color="#182330" offset="0"/><stop stop-color="#182730" offset="0"/></linearGradient><linearGradient x1="0.1" y1="0" x2="0" y2="1" id="SvgjsLinearGradient2881"><stop stop-color="#314761" offset="0"/><stop stop-color="#314f61" offset="0.16666666666666666"/></linearGradient><linearGradient x1="0.1" y1="0" x2="0" y2="1" id="SvgjsLinearGradient2882"><stop stop-color="#496b93" offset="0"/><stop stop-color="#497793" offset="0.3333333333333333"/></linearGradient><linearGradient x1="0.1" y1="0" x2="0" y2="1" id="SvgjsLinearGradient2883"><stop stop-color="#6f90b7" offset="0"/><stop stop-color="#6f9cb7" offset="0.5"/></linearGradient><linearGradient x1="0.1" y1="0" x2="0" y2="1" id="SvgjsLinearGradient2884"><stop stop-color="#a0b6d0" offset="0"/><stop stop-color="#a0bed0" offset="0.6666666666666666"/></linearGradient><linearGradient x1="0.1" y1="0" x2="0" y2="1" id="SvgjsLinearGradient2885"><stop stop-color="#d1dce8" offset="0"/><stop stop-color="#d1e0e8" offset="0.8333333333333334"/></linearGradient><clipPath id="SvgjsClipPath2886"><rect width="1920" height="1080"/></clipPath></defs></svg>