<svg xmlns="http://www.w3.org/2000/svg" version="1.1" xmlns:xlink="http://www.w3.org/1999/xlink" xmlns:svgjs="http://svgjs.dev/svgjs" viewBox="0 0 1920 1080" style="overflow: hidden; height: 85vh;" class="overflow-hidden rounded-md drop-shadow-lg transition duration-300"><rect width="1920" height="1080" fill="#22194d"/><g clip-path="url(&quot;#SvgjsClipPath1541&quot;)"><g transform="matrix(-0.21943034468302727,-1.1288712609648133,1.1288712609648133,-0.21943034468302727,550.0379239863445,1732.0028046666332)"><path d="M0,-1080C2.5738574737296744,-996.7960195480987,11.690321097003475,-740.8446821636348,15.443144842378047,-580.7761172885921C19.19596858775262,-420.70755241354937,26.790124046623788,-261.3596836977928,22.516942472247436,-119.58861074974348C18.243760897871084,22.182462198305842,-4.483208190149866,122.98329818630418,-10.195944603880061,269.8503203997038C-15.908681017610256,416.71734261310337,-18.937253022847102,607.607013553063,-11.759476010133742,761.6135225306541C-4.581698997420381,915.6200315082452,33.765228165868976,1043.9969081071447,32.8707174724001,1193.8893742652504C31.976206778931232,1343.781840423356,-11.648087258880285,1499.9498818568295,-17.126540170946967,1660.9683194792879C-22.60499308301365,1821.9867571017462,-2.8544233618244945,2076.828053246548,0,2160L 1920 2160 L 1920 -1080 Z" fill="url(&quot;#SvgjsLinearGradient1531&quot;)"/><path d="M192,-1080C190.99302430830937,-989.0264438801161,183.6467155494068,-711.299192691353,185.95814584985618,-534.1586632806965C188.26957615030557,-357.01813387003995,202.21911018501987,-195.29571135218862,205.86858180269627,-17.15682353606043C209.51805342037267,160.98206428006773,211.19866630241717,355.2719422736933,207.85497555591462,534.6746636160724C204.51128480941207,714.0773849584515,182.11319266626182,872.1904564099342,185.80643732368094,1059.2595045182143C189.49968198110005,1246.3285526264945,228.98218305437615,1473.6322030187887,230.01444350042934,1657.088952265753C231.04670394648252,1840.5457015127174,198.33574058340488,2076.181492044292,192,2160L 1920 2160 L 1920 -1080 Z" fill="url(&quot;#SvgjsLinearGradient1532&quot;)"/><path d="M384,-1080C379.548893807813,-1008.8006262515124,354.839838304624,-789.8276335887516,357.29336284687804,-652.8037575090748C359.7468873891321,-515.779881429398,395.86612495810175,-384.8819564335132,398.72114725352435,-257.8567435219389C401.57616954894695,-130.83153061036455,382.16826827094275,-23.978279283509266,374.42349661941375,109.34751996037102C366.67872496788476,242.6733192042513,355.40536275150123,407.49044483062676,352.25251734435034,542.0980519413428C349.09967193719945,676.7056590520588,355.084949495436,787.7025866734259,355.5064241765084,916.9931626246669C355.92789885758083,1046.2837385759078,348.5946234623749,1182.9738168140968,354.7813654307849,1317.8415076487881C360.9681073991949,1452.7091984834794,387.757103558766,1585.8395589076126,392.6268759869685,1726.1993076328147C397.496648415171,1866.5590563580167,385.43781266449474,2087.699884605469,384,2160L 1920 2160 L 1920 -1080 Z" fill="url(&quot;#SvgjsLinearGradient1533&quot;)"/><path d="M576,-1080C569.8330228831153,-1007.2031218610484,535.6783742145221,-795.3792329795558,538.9981372986921,-643.2187311662907C542.317900382862,-491.0582293530256,595.5358827222852,-324.1493338317656,595.9185785050196,-167.03698912040915C596.3012742877539,-9.924644409052718,543.4755077954854,144.35263020993557,541.2943119950979,299.45533710184793C539.1131161947104,454.5580439937603,577.7708980215506,612.9620530413762,582.8314037026943,763.5792522310651C587.891909383838,914.196451420754,569.1219631800508,1053.3606553901334,571.6573460819601,1203.1585322399812C574.1927289838694,1352.956409089829,597.3199254611435,1502.8929353701492,598.0437011141502,1662.3665133301522C598.7674767671568,1821.8400912901552,579.6739501856916,2077.0610855550253,576,2160L 1920 2160 L 1920 -1080 Z" fill="url(&quot;#SvgjsLinearGradient1534&quot;)"/><path d="M768,-1080C762.1221009909079,-989.2530918563516,733.6328619249316,-716.3455200433671,732.7326059454473,-535.5185511381096C731.832349965963,-354.69158223285217,763.6451446917372,-178.86850329092084,762.598464123094,4.961813431544726C761.5517835544508,188.7921301540103,730.5809431234545,385.9672803431197,726.4525225335882,567.4633491966837C722.3241019437219,748.9594180502477,735.615019821303,922.9877205375935,737.8279405838964,1093.9382265529284C740.0408613464898,1264.8887325682633,734.7013705397982,1415.4894230475143,739.7300471091488,1593.166385288693C744.7587236784995,1770.8433475298716,763.2883411848582,2065.527730881449,768,2160L 1920 2160 L 1920 -1080 Z" fill="url(&quot;#SvgjsLinearGradient1535&quot;)"/><path d="M960,-1080C964.721650888907,-989.1726766085235,986.7523662696542,-719.238051472099,988.3299053334421,-535.0360596511406C989.9074443972299,-350.8340678301822,973.3121308133694,-150.13243459061465,969.4652343827273,25.211950925750244C965.6183379520852,200.55633644211514,960.2592244172477,345.38804138480873,965.2485267495896,517.0302534470488C970.2378290819315,688.6724655092889,1000.3138732981417,874.6742471263098,999.4010483767786,1055.0652232991906C998.4882234554154,1235.4561994720716,966.3384186175407,1415.2203143675326,959.7715772214109,1599.3761104843343C953.2047358252811,1783.531906601136,959.9619295369018,2066.5626850807225,960,2160L 1920 2160 L 1920 -1080 Z" fill="url(&quot;#SvgjsLinearGradient1536&quot;)"/><path d="M1152,-1080C1152.953924642534,-977.8560079268342,1152.481786744584,-680.753046795633,1157.7235478552045,-467.13604756100534C1162.965308965825,-253.5190483263776,1179.19187812387,-23.014812722157046,1183.4505666637224,201.70199540776645C1187.7092552035747,426.41880353768994,1192.7399661695465,658.0893710828503,1183.2756790943185,881.1648012185356C1173.8113920190906,1104.2402313542207,1131.8774573947405,1327.0153764249667,1126.6648442123542,1540.1545762218775C1121.4522310299678,1753.2937760187883,1147.7774740353923,2056.6924293703128,1152,2160L 1920 2160 L 1920 -1080 Z" fill="url(&quot;#SvgjsLinearGradient1537&quot;)"/><path d="M1344,-1080C1346.2472604036986,-1017.5303413943557,1359.6313338182563,-840.7891132740309,1357.4835624221923,-705.1820483661337C1355.3357910261284,-569.5749834582365,1329.5048944418302,-403.37353552644527,1331.1133716236168,-266.35761055261673C1332.7218488054034,-129.34168557878817,1366.257696390759,-19.535040613733827,1367.1344255129122,116.9135014768377C1368.0111546350654,253.36204356740922,1343.9211823514931,414.46204944541944,1336.3737463565355,552.3336419908123C1328.826310361578,690.2052345362052,1316.9049907476028,809.2945695802835,1321.8498095431669,944.143056749195C1326.794628338731,1078.9915439181066,1360.2936042746737,1229.2044193312777,1366.0426591299192,1361.4245650042815C1371.7917139851647,1493.6447106772853,1360.0179151962932,1604.3680249545982,1356.34413867464,1737.463930787218C1352.6703621529866,1870.5598366198378,1346.0573564457734,2089.5773217978694,1344,2160L 1920 2160 L 1920 -1080 Z" fill="url(&quot;#SvgjsLinearGradient1538&quot;)"/><path d="M1536,-1080C1531.2871835044166,-992.4578568335958,1511.3849834355135,-728.8990289823815,1507.7231010265002,-554.7471410015746C1504.061218617487,-380.5952530207677,1502.633636942064,-218.2638123612711,1514.0287055459198,-35.08867211515869C1525.4237741497757,148.08646813095373,1577.9004896805684,355.3887889859219,1576.0935126496354,544.3037004751001C1574.2865356187024,733.2186119642782,1510.8835132005756,922.4347739894653,1503.1868433603222,1098.4007968199103C1495.4901735200688,1274.3668196503552,1524.4446341681682,1423.1666369277548,1529.9134936081145,1600.0998374577698C1535.3823530480608,1777.0330379877848,1534.985582268019,2066.6833062429614,1536,2160L 1920 2160 L 1920 -1080 Z" fill="url(&quot;#SvgjsLinearGradient1539&quot;)"/><path d="M1728,-1080C1734.4414023692548,-977.618603752524,1761.6277832571275,-684.5964323035485,1766.648414215528,-465.7116225151437C1771.6690451739285,-246.82681272673886,1761.9924243785094,10.920374898310996,1758.1237857504034,233.308858730429C1754.2551471222973,455.69734256254696,1747.6430647856316,650.6575860740458,1743.4365824468914,868.6192804775643C1739.2301001081512,1086.580974881083,1735.4576554591104,1325.8489052311343,1732.8848917179619,1541.0790251515402C1730.3121279768134,1756.3091450719462,1728.8141486196603,2056.8465041919235,1728,2160L 1920 2160 L 1920 -1080 Z" fill="url(&quot;#SvgjsLinearGradient1540&quot;)"/></g></g><defs><linearGradient x1="0.1" y1="0" x2="0" y2="1" id="SvgjsLinearGradient1531"><stop stop-color="#22194d" offset="0"/><stop stop-color="#19194d" offset="0"/></linearGradient><linearGradient x1="0.1" y1="0" x2="0" y2="1" id="SvgjsLinearGradient1532"><stop stop-color="#31246e" offset="0"/><stop stop-color="#25246e" offset="0.1"/></linearGradient><linearGradient x1="0.1" y1="0" x2="0" y2="1" id="SvgjsLinearGradient1533"><stop stop-color="#402f90" offset="0"/><stop stop-color="#302f90" offset="0.2"/></linearGradient><linearGradient x1="0.1" y1="0" x2="0" y2="1" id="SvgjsLinearGradient1534"><stop stop-color="#4e3ab1" offset="0"/><stop stop-color="#3a3ab1" offset="0.3"/></linearGradient><linearGradient x1="0.1" y1="0" x2="0" y2="1" id="SvgjsLinearGradient1535"><stop stop-color="#6551c6" offset="0"/><stop stop-color="#5151c6" offset="0.4"/></linearGradient><linearGradient x1="0.1" y1="0" x2="0" y2="1" id="SvgjsLinearGradient1536"><stop stop-color="#8372d1" offset="0"/><stop stop-color="#7372d1" offset="0.5"/></linearGradient><linearGradient x1="0.1" y1="0" x2="0" y2="1" id="SvgjsLinearGradient1537"><stop stop-color="#a094dc" offset="0"/><stop stop-color="#9494dc" offset="0.6"/></linearGradient><linearGradient x1="0.1" y1="0" x2="0" y2="1" id="SvgjsLinearGradient1538"><stop stop-color="#beb5e7" offset="0"/><stop stop-color="#b6b5e7" offset="0.7"/></linearGradient><linearGradient x1="0.1" y1="0" x2="0" y2="1" id="SvgjsLinearGradient1539"><stop stop-color="#dbd6f2" offset="0"/><stop stop-color="#d6d6f2" offset="0.8"/></linearGradient><linearGradient x1="0.1" y1="0" x2="0" y2="1" id="SvgjsLinearGradient1540"><stop stop-color="#f9f8fd" offset="0"/><stop stop-color="#f8f8fd" offset="0.9"/></linearGradient><clipPath id="SvgjsClipPath1541"><rect width="1920" height="1080"/></clipPath></defs></svg>